<?xml version="1.0" encoding="utf-8"?>
<!-- Generator: Adobe Illustrator 28.2.0, SVG Export Plug-In . SVG Version: 6.00 Build 0)  -->
<svg version="1.1" id="Layer_1" xmlns="http://www.w3.org/2000/svg" xmlns:xlink="http://www.w3.org/1999/xlink" x="0px" y="0px"
	 viewBox="0 0 1200 1200" style="enable-background:new 0 0 1200 1200;" xml:space="preserve">
<style type="text/css">
	.st0{fill:url(#SVGID_1_);}
	.st1{fill:url(#SVGID_00000145057152502378714870000004310498686199423147_);}
	.st2{fill:none;stroke:#AAAAAA;stroke-width:8;stroke-miterlimit:10;}
</style>
<g>
	<linearGradient id="SVGID_1_" gradientUnits="userSpaceOnUse" x1="600" y1="11" x2="600" y2="1189">
		<stop  offset="0" style="stop-color:#F3F3F3"/>
		<stop  offset="1" style="stop-color:#C6C6C6"/>
	</linearGradient>
	<circle class="st0" cx="600" cy="600" r="589"/>
	
		<linearGradient id="SVGID_00000081607715000589905890000001849853674702565812_" gradientUnits="userSpaceOnUse" x1="600" y1="1163.655" x2="600" y2="36.345">
		<stop  offset="0" style="stop-color:#EFEFEF"/>
		<stop  offset="1" style="stop-color:#FBFBFB"/>
	</linearGradient>
	<circle style="fill:url(#SVGID_00000081607715000589905890000001849853674702565812_);" cx="600" cy="600" r="563.7"/>
	<g>
		<g>
			<g>
				<path d="M415.1,696.7c-32.8,0-63.2,0-97.2,0c-1.1-14.2-2-26.8-3.2-42.8c190.3,0,377.7,0,567.7,0c0,13.2,0,25.7,0,41.6
					c-32.2,0-63.5,0-96.4,0c-61,105.2-121,208.6-185.6,320C537.4,907,477.2,803.5,415.1,696.7z M600.2,895.3
					C640,826.5,675.5,765,713.3,699.4c-77.2,0-148.8,0-226.2,0C524.8,764.7,560.4,826.3,600.2,895.3z"/>
				<path d="M785.7,503.9c33.6,0,63.8,0,96.6,0c1,13.7,1.9,25.1,3,40.3c-189.8,0-377,0-567.2,0c0-12,0-24.3,0-40.1
					c32.4,0,63.8,0,96.3,0c61.2-105.3,121.2-208.7,185.7-319.6C663.3,293.1,723.5,396.8,785.7,503.9z M713.5,500.1
					c-38.6-66.5-74.5-128.2-113.8-195.8c-40,69.8-75.2,131.1-112.2,195.8C565.6,500.1,636.5,500.1,713.5,500.1z"/>
			</g>
		</g>
		<g>
			<path d="M772.9,135.8v46.5c1,0.4,2,0.8,3,1.3c26.8,11.3,52.6,25.3,76.7,41.7c23.9,16.2,46.4,34.7,66.9,55.2
				c20.5,20.5,39,43,55.2,66.9c16.3,24.2,30.3,50,41.7,76.7c23.5,55.7,35.5,114.9,35.5,175.9s-11.9,120.2-35.5,175.9
				c-11.3,26.8-25.3,52.6-41.7,76.7c-16.2,23.9-34.7,46.4-55.2,66.9c-20.5,20.5-43,39-66.9,55.2c-24.2,16.3-50,30.3-76.7,41.7
				c-1,0.4-2,0.8-3,1.3v46.5C961.1,994,1095.2,812.7,1095.2,600S961.1,206,772.9,135.8z M104.8,600c0,212.1,133.3,393,320.7,463.6
				V1017c-0.5-0.2-0.9-0.4-1.4-0.6c-26.8-11.3-52.6-25.3-76.7-41.7c-23.9-16.2-46.4-34.7-66.9-55.2c-20.5-20.5-39-43-55.2-66.9
				c-16.3-24.2-30.3-50-41.7-76.7C160.1,720.2,148.1,661,148.1,600s11.9-120.2,35.5-175.9c11.3-26.8,25.3-52.6,41.7-76.7
				c16.2-23.9,34.7-46.4,55.2-66.9c20.5-20.5,43-39,66.9-55.2c24.2-16.3,50-30.3,76.7-41.7c0.5-0.2,0.9-0.4,1.4-0.6v-46.6
				C238.1,207,104.8,387.9,104.8,600z"/>
		</g>
	</g>
	<circle class="st2" cx="600" cy="600" r="565.8"/>
</g>
</svg>
