<?xml version="1.0" encoding="UTF-8"?>
<svg id="Layer_1" data-name="Layer 1" xmlns="http://www.w3.org/2000/svg" version="1.1" viewBox="0 0 109.3 109.3">
  <defs>
    <style>
      .cls-1 {
        fill: #f09242;
      }

      .cls-1, .cls-2, .cls-3, .cls-4 {
        stroke-width: 0px;
      }

      .cls-2 {
        fill: #282138;
      }

      .cls-3 {
        fill: #fff;
      }

      .cls-4 {
        fill: #5a5564;
      }
    </style>
  </defs>
  <circle class="cls-3" cx="54.6" cy="54.6" r="53.3"/>
  <g id="Layer_2" data-name="Layer 2">
    <g id="Layer_1-2" data-name="Layer 1-2">
      <g id="Page-1">
        <g id="wbtc_colour" data-name="wbtc colour">
          <path id="Shape" class="cls-4" d="M89.1,22.9l-3,3c14.8,16.2,14.8,41.1,0,57.3l3,3c16.5-17.9,16.5-45.5,0-63.4h0Z"/>
          <path id="Shape-2" class="cls-4" d="M26,23.2c16.2-14.8,41.1-14.8,57.3,0l3-3c-17.9-16.5-45.5-16.5-63.4,0l3.1,3Z"/>
          <path id="Shape-3" class="cls-4" d="M23.2,83.3c-14.8-16.2-14.8-41.1,0-57.3l-3-3c-16.5,17.9-16.5,45.5,0,63.4l3-3.1Z"/>
          <path id="Shape-4" class="cls-4" d="M83.3,86.1c-16.2,14.8-41.1,14.8-57.3,0l-3,3c17.9,16.5,45.5,16.5,63.4,0l-3.1-3Z"/>
          <path id="Shape-5" class="cls-1" d="M73.6,44.6c-.6-6.3-6-8.4-12.8-9v-8.6h-5.3v8.5h-4.2v-8.5h-5.2v8.7h-10.7v5.7s3.9,0,3.8,0c1.5-.2,2.8.9,3,2.3v23.8c0,.5-.3,1-.6,1.3-.4.3-.9.5-1.4.5,0,0-3.8,0-3.8,0l-1,6.3h10.6v8.8h5.3v-8.7h4.2v8.7h5.3v-8.7c8.9-.5,15.1-2.7,15.9-11.1.6-6.7-2.5-9.7-7.6-10.9,3.1-1.5,5-4.3,4.5-8.9ZM66.2,63.4c0,6.6-11.2,5.8-14.8,5.8v-11.6c3.6,0,14.8-1,14.8,5.8ZM63.7,47c0,6-9.4,5.3-12.4,5.3v-10.6c3,0,12.4-.9,12.4,5.3Z"/>
          <path id="Shape-6" class="cls-2" d="M54.6,109.3C24.4,109.3,0,84.8,0,54.6,0,24.4,24.5,0,54.6,0c30.2,0,54.6,24.5,54.6,54.6,0,30.2-24.4,54.6-54.6,54.6h0ZM54.6,4.3c-27.8,0-50.3,22.6-50.3,50.4,0,27.8,22.6,50.3,50.4,50.3,27.8,0,50.3-22.5,50.3-50.3,0-27.8-22.5-50.3-50.3-50.4,0,0,0,0,0,0Z"/>
        </g>
      </g>
    </g>
  </g>
</svg>