<?xml version="1.0" encoding="utf-8"?>
<!-- Generator: Adobe Illustrator 28.3.0, SVG Export Plug-In . SVG Version: 6.00 Build 0)  -->
<svg version="1.1" id="Layer_1" xmlns="http://www.w3.org/2000/svg" xmlns:xlink="http://www.w3.org/1999/xlink" x="0px" y="0px"
	 viewBox="0 0 1200 1200" style="enable-background:new 0 0 1200 1200;" xml:space="preserve">
<style type="text/css">
	.st0{fill:url(#SVGID_1_);}
	.st1{fill:#120370;}
</style>
<g>
	<linearGradient id="SVGID_1_" gradientUnits="userSpaceOnUse" x1="89.8094" y1="894.5587" x2="1110.1906" y2="305.4413">
		<stop  offset="0" style="stop-color:#29BBFA"/>
		<stop  offset="6.167132e-02" style="stop-color:#35B3FA"/>
		<stop  offset="0.378" style="stop-color:#6B8DFA"/>
		<stop  offset="0.6511" style="stop-color:#9371FA"/>
		<stop  offset="0.8674" style="stop-color:#AB60FA"/>
		<stop  offset="1" style="stop-color:#B45AFA"/>
	</linearGradient>
	<circle class="st0" cx="600" cy="600" r="589"/>
</g>
<g id="Gg52g0_00000003799715326533062410000002171949064105368225_">
	<g>
		<path class="st1" d="M44.2,599.9c1.4-309,253-559,561-557.4c307.3,1.6,557.7,255,556.4,563.1c-1.3,307-254,558.1-559.9,556.3
			C293.6,1160.3,42.8,907.5,44.2,599.9z M67.5,601.3c-0.5,294.4,236.8,534,529.8,534.9c296.7,1,538.1-237,539.1-531.3
			c1-295.1-237-535.4-531.1-536.3C309.6,67.7,68,306.9,67.5,601.3z"/>
		<path class="st1" d="M595.5,763L321.9,611.2c-4.1-2.3-6.6-6.6-6.6-11.3l0.4-277.9c0-4.5,2.3-8.6,6.2-11l274-166.4
			c4.1-2.5,9.3-2.5,13.4,0l271.8,166.3c3.8,2.3,6.1,6.5,6.1,11V601c0,4.7-2.5,9-6.6,11.2L608,763C604.1,765.2,599.4,765.2,595.5,763
			z M350.8,596.1l251,130.8c0,0,168.9-86.2,251.2-131.1c-84-136.7-166.2-270.6-250.9-408.5C517,325.7,350.8,596.1,350.8,596.1z
			 M848.6,323.5L641.3,197.3l112.4,183.3L848.6,323.5z M560.2,200.5L356.5,325.9l92.9,54.5L560.2,200.5z M768.3,404.5l90.9,147.8
			V349.4L768.3,404.5z M344.3,553.6L433.7,406l-89.3-54.3V553.6z"/>
		<path class="st1" d="M338.2,657.2l257.2,147.4c4,2.3,8.8,2.3,12.8,0l256.6-147.1c8.6-4.9,19.2,1.3,19.2,11.2v212.7
			c0,4.5-2.3,8.6-6.1,10.9L608.2,1059c-4.1,2.6-9.4,2.6-13.5,0L325.1,892.5c-3.8-2.3-6.1-6.5-6.1-10.9V668.4
			C319,658.5,329.6,652.3,338.2,657.2z M377.4,711c76.6,105.1,144.9,198.7,214.3,293.8c4.9,6.8,15,6.7,19.9,0
			c69-95.4,135.6-187.3,210.2-290.4c-78.8,45.9-145.1,84.5-211.3,123c-5.2,3-11.7,3-16.9,0C524.6,797.1,457,757.5,377.4,711z
			 M354.3,879.6c66.9,40.8,129.6,79,200.6,122.3c-44.5-61.4-83.1-114.6-122.5-168.9C405.9,848.7,382.4,862.8,354.3,879.6z
			 M772,832.4c-37.4,51.9-73.4,101.8-118.4,164.3c72-44.2,130.9-80.3,194.3-119.2C819.8,860.9,797.2,847.4,772,832.4z M416.2,810.5
			c-23.9-33-46.1-63.6-72.3-99.6c0,51.1,0,95,0,143.4C369.3,838.9,391.6,825.4,416.2,810.5z M859.8,710.1
			c-26.2,36.4-47.5,66.3-70.6,98.4c23.9,14.6,45.6,27.8,70.6,43.1C859.8,803.9,859.8,761.2,859.8,710.1z"/>
	</g>
</g>
</svg>
