<?xml version="1.0" encoding="utf-8"?>
<!-- Generator: Adobe Illustrator 28.2.0, SVG Export Plug-In . SVG Version: 6.00 Build 0)  -->
<svg version="1.1" id="Layer_1" xmlns="http://www.w3.org/2000/svg" xmlns:xlink="http://www.w3.org/1999/xlink" x="0px" y="0px"
	 viewBox="0 0 2000 2000" style="enable-background:new 0 0 2000 2000;" xml:space="preserve">
<style type="text/css">
	.st0{clip-path:url(#SVGID_00000096778415326374439440000003399296748842079616_);}
	.st1{fill:#0074F0;}
	.st2{fill:#FFFFFF;}
	.st3{opacity:0.2;fill:#FFFFFF;enable-background:new    ;}
	.st4{fill:url(#SVGID_00000092456655171871431320000006943633913368722845_);}
	.st5{fill:url(#SVGID_00000124161802401155204790000001394795669511536315_);}
	.st6{opacity:0.1;fill:#0074F0;enable-background:new    ;}
</style>
<g>
	<g>
		<defs>
			<rect id="SVGID_1_" x="6.4" y="6.4" width="1987.2" height="1987.2"/>
		</defs>
		<clipPath id="SVGID_00000137816830828929493930000015993071479070727605_">
			<use xlink:href="#SVGID_1_"  style="overflow:visible;"/>
		</clipPath>
		<g style="clip-path:url(#SVGID_00000137816830828929493930000015993071479070727605_);">
			<path class="st1" d="M1000,1993.6c548.8,0,993.6-444.9,993.6-993.6S1548.8,6.4,1000,6.4S6.4,451.2,6.4,1000
				S451.2,1993.6,1000,1993.6z"/>
			<path class="st2" d="M1002.6,1873.7c-185.5,0-370.2-60.4-520.1-170.1l46.1-62.7c136.6,100,305,155.1,474,155.1
				c78.7,0,156.8-11.7,232.1-34.7l22.9,74.4C1174.9,1860.9,1089.1,1873.7,1002.6,1873.7L1002.6,1873.7z M1347.9,1802.4L1317,1731
				c4.6-1.9,9-3.9,13.5-6c226.1-102.2,388.9-299.7,446.8-541.7l75.8,18.1c-63.4,265.6-242.2,482.2-490.4,594.5
				C1357.7,1798.1,1352.8,1800.3,1347.9,1802.4z M408.1,1642.6c-86.7-79.5-155.6-174.5-204.5-282.3c-51.8-114.1-78-235-78-359.4
				c0-30.7,1.6-61.8,4.9-92.4l77.5,8.2c-3,27.9-4.5,56.2-4.5,84.2c0,113.3,23.9,223.5,71,327.4c44.6,98.2,107.2,184.7,186.2,257.1
				L408.1,1642.6z M1870.3,1106.8l-77.3-9.7c4.1-32.7,6.2-65.9,6.2-98.8c0-113.3-23.9-223.5-71-327.4
				c-42.5-93.6-101.5-176.7-175.4-247.1l53.7-56.3c81.2,77.3,146,168.6,192.6,271.3c51.8,114.1,78,235,78,359.4
				C1877.1,1034.4,1874.8,1070.9,1870.3,1106.8L1870.3,1106.8z M222.1,830.2L146,813.6c28.6-130.3,87.5-254.2,170.3-358.4
				c86.9-109.3,195.8-194,323.7-251.9c9.8-4.5,19.8-8.7,29.7-12.8l29.5,71.9c-9,3.7-18.1,7.6-27.1,11.7
				C555.7,326.8,456.5,404,377.3,503.5C301.9,598.5,248.2,711.4,222.1,830.2L222.1,830.2z M1485.9,367
				c-138.9-105.7-311.5-163.9-485.8-163.9c-73.7,0-147.1,10.3-217.9,30.5L760.7,159c77.9-22.3,158.4-33.6,239.4-33.6
				c191.3,0,380.6,63.9,533,179.7L1485.9,367L1485.9,367z"/>
			<path class="st3" d="M1621,1617c340.7-343,338.8-897.3-4.3-1237.9c-343-340.7-897.3-338.8-1237.9,4.3L1621,1617.2V1617z"/>
			<path class="st2" d="M1049.6,1390.7c-15.6,1.9-31.5,3.1-47.4,3.1c-216.4,0-392.3-175.9-392.3-392.3
				c0-173.1,112.7-320.3,268.5-372.2L993.3,443c-303.7,4.7-549.5,253.6-549.5,558.5c0,283.6,212.6,518.5,486.7,554l119.3-164.5
				L1049.6,1390.7z"/>
			
				<linearGradient id="SVGID_00000080890186654053686830000009769423523293906610_" gradientUnits="userSpaceOnUse" x1="1354.4266" y1="1834.9504" x2="546.8911" y2="1146.7358" gradientTransform="matrix(1 0 0 -1 0 2002)">
				<stop  offset="0" style="stop-color:#0074F0;stop-opacity:0.5"/>
				<stop  offset="1" style="stop-color:#FFFFFF"/>
			</linearGradient>
			<path style="fill:url(#SVGID_00000080890186654053686830000009769423523293906610_);" d="M609.8,1001.3
				c0-173.1,112.7-320.3,268.5-372.2l114.8-186.3c-303.7,4.7-549.5,253.6-549.5,558.5H609.8z"/>
			<path class="st2" d="M1070.5,447.1L969.6,610.7c10.9-0.9,21.8-1.4,32.7-1.4c216.4,0,392.3,175.9,392.3,392.3
				c0,165-102.5,306.6-247.2,364.3L1006.5,1560c305.9-2.4,554.2-251.9,554.2-558.5c0-285-214.5-520.6-490.5-554.5H1070.5z"/>
			
				<linearGradient id="SVGID_00000102534942633288181610000016085604184658958754_" gradientUnits="userSpaceOnUse" x1="637.1382" y1="301.0478" x2="1251.252" y2="701.8571" gradientTransform="matrix(1 0 0 -1 0 2002)">
				<stop  offset="0" style="stop-color:#0074F0;stop-opacity:0.5"/>
				<stop  offset="1" style="stop-color:#FFFFFF"/>
			</linearGradient>
			<path style="fill:url(#SVGID_00000102534942633288181610000016085604184658958754_);" d="M1394.6,1001.3
				c0,165-102.5,306.6-247.2,364.3l-140.9,194.1c305.9-2.4,554.2-251.9,554.2-558.5H1394.6z"/>
			<path class="st2" d="M733.9,1093.5l266.1,153.4l266.3-153.4L1000,1459.3L733.9,1093.5z M719.5,1016.6L1000,562.7l280.5,453.8
				L1000,1178.3L719.5,1016.6z"/>
			<path class="st6" d="M1000.7,556.3l-280.5,465.4l280.5,165.7V894.2V556.3z"/>
			<path class="st6" d="M1000.7,1240.5l-3.6,4.3V1460l3.6,10.2l280.5-395.4L1000.7,1240.5z"/>
			<path class="st6" d="M1000.7,1187.4l280.5-165.7l-280.5-127.6V1187.4z"/>
			<path class="st6" d="M720.2,1021.7l280.5,165.7V894.1L720.2,1021.7z"/>
		</g>
	</g>
</g>
</svg>
