<?xml version="1.0" encoding="UTF-8"?>
<!DOCTYPE svg PUBLIC "-//W3C//DTD SVG 1.1//EN" "http://www.w3.org/Graphics/SVG/1.1/DTD/svg11.dtd">
<svg xmlns="http://www.w3.org/2000/svg" version="1.1" width="8335px" height="8334px" style="shape-rendering:geometricPrecision; text-rendering:geometricPrecision; image-rendering:optimizeQuality; fill-rule:evenodd; clip-rule:evenodd" xmlns:xlink="http://www.w3.org/1999/xlink">
<g><path style="opacity:0.999" fill="#a1a1aa" d="M 7387.5,585.5 C 7422.93,585.627 7450.43,600.293 7470,629.5C 7476.82,641.279 7480.82,653.945 7482,667.5C 7494.03,1355.17 7506.2,2042.84 7518.5,2730.5C 7517.73,2769.41 7500.06,2797.57 7465.5,2815C 7432.63,2828.52 7401.63,2825.18 7372.5,2805C 7277.89,2737.18 7183.06,2670.34 7088,2604.5C 6584.29,3589.41 6080.46,4574.24 5576.5,5559C 5750.79,5914.42 5924.96,6269.92 6099,6625.5C 6178.96,6799.07 6194.96,6978.41 6147,7163.5C 6099.08,7333.64 6006.25,7473.48 5868.5,7583C 5699.54,7711.5 5509.21,7763.5 5297.5,7739C 5149.81,7709.2 5036.98,7630.37 4959,7502.5C 4949.16,7484.81 4939.82,7466.81 4931,7448.5C 4680.27,6935.38 4429.27,6422.38 4178,5909.5C 4094.25,5720.31 4081.25,5526.31 4139,5327.5C 4154.57,5277.02 4174.57,5228.35 4199,5181.5C 4769.26,4067.32 5339.26,2952.99 5909,1838.5C 5917.87,1821.26 5927.37,1804.43 5937.5,1788C 5855.33,1729.83 5773.17,1671.67 5691,1613.5C 5675.66,1579.87 5678,1547.54 5698,1516.5C 5707.49,1504.51 5718.99,1495.01 5732.5,1488C 6264.99,1194.59 6797.33,900.92 7329.5,607C 7339.04,601.73 7348.71,596.73 7358.5,592C 7368.06,588.724 7377.73,586.558 7387.5,585.5 Z"/></g>
<g><path style="opacity:0.999" fill="#a1a1aa" d="M 4223.5,1370.5 C 4435.21,1372.63 4611.04,1452.3 4751,1609.5C 4874.34,1757.56 4928.34,1928.22 4913,2121.5C 4891.39,2313.93 4806.23,2471.09 4657.5,2593C 4501.24,2713.16 4324.91,2760.16 4128.5,2734C 3946.06,2703.74 3798.23,2616.24 3685,2471.5C 3567.29,2311.3 3524.29,2132.63 3556,1935.5C 3592.12,1749.88 3686.62,1602.38 3839.5,1493C 3955.15,1413.95 4083.15,1373.12 4223.5,1370.5 Z"/></g>
<g><path style="opacity:0.999" fill="#a1a1aa" d="M 1677.5,2094.5 C 1883.12,2087.78 2069.45,2143.61 2236.5,2262C 2795.83,2666.67 3355.17,3071.33 3914.5,3476C 4100.76,3616.5 4216.26,3802 4261,4032.5C 4300.43,4268.71 4254.77,4486.71 4124,4686.5C 4071.61,4766.25 4008.44,4836.75 3934.5,4898C 3752.07,5042.32 3544.07,5107.65 3310.5,5094C 3146.16,5081.45 2996.82,5028.12 2862.5,4934C 2301.01,4527.42 1739.34,4121.09 1177.5,3715C 996.964,3579.24 882.464,3400.41 834,3178.5C 792.892,2967.25 822.559,2766.58 923,2576.5C 976.869,2479.03 1045.04,2392.53 1127.5,2317C 1284.98,2180.63 1468.31,2106.47 1677.5,2094.5 Z"/></g>
</svg>
